M48
; DRILL file {KiCad 7.0.10} date Fri Apr  5 03:11:38 2024
; FORMAT={-:-/ absolute / metric / decimal}
; #@! TF.CreationDate,2024-04-05T03:11:38+02:00
; #@! TF.GenerationSoftware,Kicad,Pcbnew,7.0.10
; #@! TF.FileFunction,Plated,1,2,PTH
FMAT,2
METRIC
; #@! TA.AperFunction,Plated,PTH,ViaDrill
T1C0.400
; #@! TA.AperFunction,Plated,PTH,ViaDrill
T2C0.600
; #@! TA.AperFunction,Plated,PTH,ComponentDrill
T3C0.750
; #@! TA.AperFunction,Plated,PTH,ComponentDrill
T4C0.800
; #@! TA.AperFunction,Plated,PTH,ComponentDrill
T5C0.813
; #@! TA.AperFunction,Plated,PTH,ComponentDrill
T6C0.840
; #@! TA.AperFunction,Plated,PTH,ComponentDrill
T7C0.910
; #@! TA.AperFunction,Plated,PTH,ComponentDrill
T8C0.950
; #@! TA.AperFunction,Plated,PTH,ComponentDrill
T9C1.100
; #@! TA.AperFunction,Plated,PTH,ComponentDrill
T10C2.500
; #@! TA.AperFunction,Plated,PTH,ComponentDrill
T11C3.200
; #@! TA.AperFunction,Plated,PTH,ComponentDrill
T12C4.550
%
G90
G05
T1
X112.07Y-78.1
X114.39Y-75.28
X118.67Y-76.69
X122.69Y-64.31
X122.842Y-67.48
X139.8Y-121.13
X142.48Y-119.081
X144.925Y-109.2
X144.98Y-115.41
X153.91Y-121.81
X154.009Y-120.379
X155.128Y-106.47
X157.82Y-105.45
X158.67Y-102.39
X160.03Y-95.36
X172.358Y-115.95
X177.216Y-113.496
X187.445Y-103.805
X220.265Y-110.84
T2
X101.72Y-91.5
X106.67Y-99.76
X109.43Y-77.56
X111.18Y-100.95
X122.97Y-92.43
X136.21Y-117.32
X138.97Y-103.97
X141.74Y-107.45
X153.21Y-93.22
X153.31Y-86.82
X157.838Y-115.408
X160.39Y-85.84
X167.64Y-114.63
X169.43Y-108.8
X187.71Y-67.65
T3
X114.82Y-118.975
T4
X174.36Y-90.975
X179.36Y-90.975
X214.75Y-93.29
X214.75Y-100.89
T5
X199.51Y-95.81
X202.05Y-93.27
X202.05Y-98.35
T6
X117.36Y-118.975
T7
X94.82Y-118.975
X97.36Y-118.975
T8
X191.055Y-72.205
X191.055Y-74.705
X191.055Y-77.205
X191.055Y-79.705
X199.395Y-72.22
X199.395Y-74.72
X199.395Y-77.22
X199.395Y-79.72
T9
X191.12Y-115.395
X191.12Y-119.895
X197.62Y-115.395
X197.62Y-119.895
X216.12Y-115.395
X216.12Y-119.895
X222.62Y-115.395
X222.62Y-119.895
T10
X167.77Y-70.755
X167.77Y-81.755
X182.77Y-70.755
X182.77Y-81.755
X191.57Y-90.0
X191.57Y-105.0
X207.77Y-70.755
X207.77Y-81.755
X222.77Y-70.755
X222.77Y-81.755
X225.57Y-90.0
X225.57Y-105.0
T11
X89.91Y-66.065
X89.91Y-126.065
X229.91Y-66.065
X229.91Y-126.065
T12
X98.225Y-84.84
X105.425Y-84.84
M30
