%TF.GenerationSoftware,KiCad,Pcbnew,7.0.10*%
%TF.CreationDate,2024-04-05T03:10:35+02:00*%
%TF.ProjectId,Projet_PAZ,50726f6a-6574-45f5-9041-5a2e6b696361,rev?*%
%TF.SameCoordinates,Original*%
%TF.FileFunction,Soldermask,Bot*%
%TF.FilePolarity,Negative*%
%FSLAX46Y46*%
G04 Gerber Fmt 4.6, Leading zero omitted, Abs format (unit mm)*
G04 Created by KiCad (PCBNEW 7.0.10) date 2024-04-05 03:10:35*
%MOMM*%
%LPD*%
G01*
G04 APERTURE LIST*
G04 Aperture macros list*
%AMRoundRect*
0 Rectangle with rounded corners*
0 $1 Rounding radius*
0 $2 $3 $4 $5 $6 $7 $8 $9 X,Y pos of 4 corners*
0 Add a 4 corners polygon primitive as box body*
4,1,4,$2,$3,$4,$5,$6,$7,$8,$9,$2,$3,0*
0 Add four circle primitives for the rounded corners*
1,1,$1+$1,$2,$3*
1,1,$1+$1,$4,$5*
1,1,$1+$1,$6,$7*
1,1,$1+$1,$8,$9*
0 Add four rect primitives between the rounded corners*
20,1,$1+$1,$2,$3,$4,$5,0*
20,1,$1+$1,$4,$5,$6,$7,0*
20,1,$1+$1,$6,$7,$8,$9,0*
20,1,$1+$1,$8,$9,$2,$3,0*%
G04 Aperture macros list end*
%ADD10C,5.000000*%
%ADD11C,1.200000*%
%ADD12R,1.365000X1.365000*%
%ADD13C,1.524800*%
%ADD14R,1.300000X1.300000*%
%ADD15C,1.300000*%
%ADD16C,5.600000*%
%ADD17C,1.650000*%
%ADD18O,1.950000X1.700000*%
%ADD19RoundRect,0.250000X0.725000X-0.600000X0.725000X0.600000X-0.725000X0.600000X-0.725000X-0.600000X0*%
%ADD20RoundRect,0.250000X-0.725000X0.600000X-0.725000X-0.600000X0.725000X-0.600000X0.725000X0.600000X0*%
%ADD21C,1.416000*%
%ADD22RoundRect,0.102000X3.000000X3.000000X-3.000000X3.000000X-3.000000X-3.000000X3.000000X-3.000000X0*%
%ADD23C,6.204000*%
G04 APERTURE END LIST*
D10*
%TO.C,H18*%
X225570000Y-105000000D03*
%TD*%
%TO.C,H17*%
X225570000Y-90000000D03*
%TD*%
%TO.C,H16*%
X191570000Y-90000000D03*
%TD*%
%TO.C,H15*%
X191570000Y-105000000D03*
%TD*%
%TO.C,H14*%
X222770000Y-81755000D03*
%TD*%
%TO.C,H13*%
X222770000Y-70755000D03*
%TD*%
%TO.C,H12*%
X207770000Y-81755000D03*
%TD*%
%TO.C,H11*%
X207770000Y-70755000D03*
%TD*%
%TO.C,H6*%
X182770000Y-81755000D03*
%TD*%
%TO.C,H4*%
X182770000Y-70755000D03*
%TD*%
%TO.C,H3*%
X167770000Y-81755000D03*
%TD*%
%TO.C,H1*%
X167770000Y-70755000D03*
%TD*%
D11*
%TO.C,Q1*%
X114820000Y-118975000D03*
D12*
X117360000Y-118975000D03*
%TD*%
D13*
%TO.C,Q3*%
X202050000Y-93270000D03*
X199510000Y-95810000D03*
X202050000Y-98350000D03*
%TD*%
D14*
%TO.C,LS2*%
X214750000Y-100890000D03*
D15*
X214750000Y-93290000D03*
%TD*%
D16*
%TO.C,H9*%
X89910000Y-126065000D03*
%TD*%
D17*
%TO.C,S3*%
X197620000Y-119895000D03*
X191120000Y-119895000D03*
X197620000Y-115395000D03*
X191120000Y-115395000D03*
%TD*%
D18*
%TO.C,U5*%
X191055000Y-72205000D03*
X191055000Y-74705000D03*
X191055000Y-77205000D03*
D19*
X191055000Y-79705000D03*
%TD*%
D20*
%TO.C,U4*%
X199395000Y-72220000D03*
D18*
X199395000Y-74720000D03*
X199395000Y-77220000D03*
X199395000Y-79720000D03*
%TD*%
D17*
%TO.C,S5*%
X216120000Y-115395000D03*
X222620000Y-115395000D03*
X216120000Y-119895000D03*
X222620000Y-119895000D03*
%TD*%
D15*
%TO.C,RT1*%
X179360000Y-90975000D03*
D14*
X174360000Y-90975000D03*
%TD*%
D21*
%TO.C,LED1*%
X94820000Y-118975000D03*
X97360000Y-118975000D03*
%TD*%
D22*
%TO.C,J3*%
X105425000Y-84840000D03*
D23*
X98225000Y-84840000D03*
%TD*%
D16*
%TO.C,H10*%
X229910000Y-66065000D03*
%TD*%
%TO.C,H5*%
X229910000Y-126065000D03*
%TD*%
%TO.C,H2*%
X89910000Y-66065000D03*
%TD*%
M02*
