%TF.GenerationSoftware,KiCad,Pcbnew,7.0.10*%
%TF.CreationDate,2024-04-05T03:10:35+02:00*%
%TF.ProjectId,Projet_PAZ,50726f6a-6574-45f5-9041-5a2e6b696361,rev?*%
%TF.SameCoordinates,Original*%
%TF.FileFunction,Paste,Top*%
%TF.FilePolarity,Positive*%
%FSLAX46Y46*%
G04 Gerber Fmt 4.6, Leading zero omitted, Abs format (unit mm)*
G04 Created by KiCad (PCBNEW 7.0.10) date 2024-04-05 03:10:35*
%MOMM*%
%LPD*%
G01*
G04 APERTURE LIST*
G04 Aperture macros list*
%AMRoundRect*
0 Rectangle with rounded corners*
0 $1 Rounding radius*
0 $2 $3 $4 $5 $6 $7 $8 $9 X,Y pos of 4 corners*
0 Add a 4 corners polygon primitive as box body*
4,1,4,$2,$3,$4,$5,$6,$7,$8,$9,$2,$3,0*
0 Add four circle primitives for the rounded corners*
1,1,$1+$1,$2,$3*
1,1,$1+$1,$4,$5*
1,1,$1+$1,$6,$7*
1,1,$1+$1,$8,$9*
0 Add four rect primitives between the rounded corners*
20,1,$1+$1,$2,$3,$4,$5,0*
20,1,$1+$1,$4,$5,$6,$7,0*
20,1,$1+$1,$6,$7,$8,$9,0*
20,1,$1+$1,$8,$9,$2,$3,0*%
G04 Aperture macros list end*
%ADD10R,0.600000X1.475000*%
%ADD11R,1.475000X0.600000*%
%ADD12RoundRect,0.237500X0.300000X0.237500X-0.300000X0.237500X-0.300000X-0.237500X0.300000X-0.237500X0*%
%ADD13RoundRect,0.237500X0.237500X-0.300000X0.237500X0.300000X-0.237500X0.300000X-0.237500X-0.300000X0*%
%ADD14RoundRect,0.237500X-0.237500X0.250000X-0.237500X-0.250000X0.237500X-0.250000X0.237500X0.250000X0*%
%ADD15RoundRect,0.150000X-0.150000X0.512500X-0.150000X-0.512500X0.150000X-0.512500X0.150000X0.512500X0*%
%ADD16R,3.700000X1.700000*%
%ADD17RoundRect,0.237500X-0.250000X-0.237500X0.250000X-0.237500X0.250000X0.237500X-0.250000X0.237500X0*%
%ADD18RoundRect,0.237500X0.250000X0.237500X-0.250000X0.237500X-0.250000X-0.237500X0.250000X-0.237500X0*%
%ADD19RoundRect,0.237500X0.237500X-0.250000X0.237500X0.250000X-0.237500X0.250000X-0.237500X-0.250000X0*%
%ADD20RoundRect,0.237500X-0.237500X0.287500X-0.237500X-0.287500X0.237500X-0.287500X0.237500X0.287500X0*%
%ADD21R,0.740000X2.400000*%
%ADD22RoundRect,0.237500X-0.287500X-0.237500X0.287500X-0.237500X0.287500X0.237500X-0.287500X0.237500X0*%
%ADD23RoundRect,0.237500X0.237500X-0.287500X0.237500X0.287500X-0.237500X0.287500X-0.237500X-0.287500X0*%
%ADD24RoundRect,0.237500X0.287500X0.237500X-0.287500X0.237500X-0.287500X-0.237500X0.287500X-0.237500X0*%
%ADD25RoundRect,0.237500X-0.237500X0.300000X-0.237500X-0.300000X0.237500X-0.300000X0.237500X0.300000X0*%
%ADD26RoundRect,0.237500X-0.300000X-0.237500X0.300000X-0.237500X0.300000X0.237500X-0.300000X0.237500X0*%
G04 APERTURE END LIST*
D10*
%TO.C,IC1*%
X148090000Y-107927000D03*
X148890000Y-107927000D03*
X149690000Y-107927000D03*
X150490000Y-107927000D03*
X151290000Y-107927000D03*
X152090000Y-107927000D03*
X152890000Y-107927000D03*
X153690000Y-107927000D03*
D11*
X155128000Y-109365000D03*
X155128000Y-110165000D03*
X155128000Y-110965000D03*
X155128000Y-111765000D03*
X155128000Y-112565000D03*
X155128000Y-113365000D03*
X155128000Y-114165000D03*
X155128000Y-114965000D03*
D10*
X153690000Y-116403000D03*
X152890000Y-116403000D03*
X152090000Y-116403000D03*
X151290000Y-116403000D03*
X150490000Y-116403000D03*
X149690000Y-116403000D03*
X148890000Y-116403000D03*
X148090000Y-116403000D03*
D11*
X146652000Y-114965000D03*
X146652000Y-114165000D03*
X146652000Y-113365000D03*
X146652000Y-112565000D03*
X146652000Y-111765000D03*
X146652000Y-110965000D03*
X146652000Y-110165000D03*
X146652000Y-109365000D03*
%TD*%
D12*
%TO.C,C6*%
X190005000Y-113415000D03*
X191730000Y-113415000D03*
%TD*%
D13*
%TO.C,C16*%
X139750000Y-110770000D03*
X139750000Y-109045000D03*
%TD*%
D14*
%TO.C,R3*%
X196110000Y-96972500D03*
X196110000Y-95147500D03*
%TD*%
D15*
%TO.C,U1*%
X108045000Y-106945000D03*
X106145000Y-106945000D03*
X106145000Y-104670000D03*
X107095000Y-104670000D03*
X108045000Y-104670000D03*
%TD*%
D16*
%TO.C,S1*%
X95825000Y-91890000D03*
X95825000Y-97790000D03*
%TD*%
D17*
%TO.C,R17*%
X216765000Y-113395000D03*
X214940000Y-113395000D03*
%TD*%
%TO.C,R16*%
X198780000Y-113415000D03*
X196955000Y-113415000D03*
%TD*%
D18*
%TO.C,R13*%
X101145000Y-118975000D03*
X102970000Y-118975000D03*
%TD*%
%TO.C,R12*%
X110237500Y-118975000D03*
X112062500Y-118975000D03*
%TD*%
D17*
%TO.C,R11*%
X220265000Y-113395000D03*
X218440000Y-113395000D03*
%TD*%
D19*
%TO.C,R10*%
X135360000Y-74640000D03*
X135360000Y-76465000D03*
%TD*%
D14*
%TO.C,R9*%
X170360000Y-90972500D03*
X170360000Y-89147500D03*
%TD*%
D18*
%TO.C,R6*%
X102192500Y-108950000D03*
X100367500Y-108950000D03*
%TD*%
D14*
%TO.C,R5*%
X101815000Y-97825000D03*
X101815000Y-96000000D03*
%TD*%
D17*
%TO.C,R4*%
X195280000Y-113415000D03*
X193455000Y-113415000D03*
%TD*%
%TO.C,R2*%
X161977500Y-110965000D03*
X163802500Y-110965000D03*
%TD*%
%TO.C,R1*%
X147067500Y-105165000D03*
X148892500Y-105165000D03*
%TD*%
D20*
%TO.C,L2*%
X137750000Y-110782500D03*
X137750000Y-109032500D03*
%TD*%
D21*
%TO.C,J2*%
X99080000Y-75530000D03*
X99080000Y-71630000D03*
X100350000Y-75530000D03*
X100350000Y-71630000D03*
X101620000Y-75530000D03*
X101620000Y-71630000D03*
X102890000Y-75530000D03*
X102890000Y-71630000D03*
X104160000Y-75530000D03*
X104160000Y-71630000D03*
X105430000Y-75530000D03*
X105430000Y-71630000D03*
X106700000Y-75530000D03*
X106700000Y-71630000D03*
%TD*%
D22*
%TO.C,D7*%
X104170000Y-108950000D03*
X105920000Y-108950000D03*
%TD*%
D23*
%TO.C,D5*%
X103815000Y-97822500D03*
X103815000Y-96072500D03*
%TD*%
D24*
%TO.C,D3*%
X158015000Y-110965000D03*
X159765000Y-110965000D03*
%TD*%
D23*
%TO.C,D2*%
X99815000Y-95992500D03*
X99815000Y-97742500D03*
%TD*%
D25*
%TO.C,C21*%
X137750000Y-114210000D03*
X137750000Y-115935000D03*
%TD*%
%TO.C,C20*%
X139750000Y-115935000D03*
X139750000Y-114210000D03*
%TD*%
%TO.C,C19*%
X141750000Y-115935000D03*
X141750000Y-114210000D03*
%TD*%
%TO.C,C18*%
X143750000Y-114210000D03*
X143750000Y-115935000D03*
%TD*%
%TO.C,C17*%
X143750000Y-110770000D03*
X143750000Y-109045000D03*
%TD*%
D13*
%TO.C,C12*%
X141750000Y-110770000D03*
X141750000Y-109045000D03*
%TD*%
D25*
%TO.C,C10*%
X108045000Y-110670000D03*
X108045000Y-108945000D03*
%TD*%
D13*
%TO.C,C9*%
X108045000Y-100945000D03*
X108045000Y-102670000D03*
%TD*%
D25*
%TO.C,C8*%
X105815000Y-97822500D03*
X105815000Y-96097500D03*
%TD*%
D26*
%TO.C,C7*%
X223715000Y-113395000D03*
X221990000Y-113395000D03*
%TD*%
D25*
%TO.C,C5*%
X203395000Y-73942500D03*
X203395000Y-72217500D03*
%TD*%
D13*
%TO.C,C4*%
X187055000Y-78005000D03*
X187055000Y-79730000D03*
%TD*%
M02*
